<?xml version="1.0" standalone="no"?>
<!DOCTYPE svg PUBLIC "-//W3C//DTD SVG 20010904//EN"
 "http://www.w3.org/TR/2001/REC-SVG-20010904/DTD/svg10.dtd">
<svg version="1.0" xmlns="http://www.w3.org/2000/svg"
 width="350.000000pt" height="79.000000pt" viewBox="0 0 350.000000 79.000000"
 preserveAspectRatio="xMidYMid meet">
<metadata>
Created by potrace 1.15, written by Peter Selinger 2001-2017
</metadata>
<g transform="translate(0.000000,79.000000) scale(0.100000,-0.100000)"
fill="#000000" stroke="none">
<path d="M0 415 l0 -375 643 2 642 3 -637 2 -638 3 0 365 0 365 1740 0 1740 0
3 -367 2 -368 3 373 2 372 -1750 0 -1750 0 0 -375z"/>
<path d="M2780 438 l0 -168 40 0 40 0 0 168 0 168 -40 0 -40 0 0 -168z"/>
<path d="M3130 440 l0 -170 40 0 39 0 3 81 c2 65 7 84 21 93 12 8 22 8 35 0
13 -9 18 -28 20 -93 l3 -81 39 0 40 0 0 103 c0 95 -2 105 -23 125 -27 26 -88
30 -107 7 -22 -27 -30 -16 -30 45 l0 60 -40 0 -40 0 0 -170z"/>
<path d="M1850 430 l0 -160 40 0 39 0 3 63 3 62 60 0 60 0 3 -62 3 -63 39 0
40 0 0 160 0 160 -40 0 -40 0 0 -60 0 -60 -65 0 -65 0 0 60 0 60 -40 0 -40 0
0 -160z"/>
<path d="M2940 550 c0 -20 -5 -30 -15 -30 -10 0 -15 -11 -15 -35 0 -24 5 -35
15 -35 12 0 15 -15 15 -73 0 -58 4 -77 18 -89 26 -23 51 -29 88 -22 30 6 34
10 34 38 0 28 -3 32 -27 31 -27 0 -28 2 -31 58 l-3 57 31 0 c28 0 30 3 30 35
0 32 -2 35 -30 35 -27 0 -30 3 -30 30 0 28 -2 30 -40 30 -38 0 -40 -2 -40 -30z"/>
<path d="M2253 500 c-41 -24 -55 -51 -55 -105 0 -63 24 -100 76 -120 52 -20
103 -14 138 15 23 20 23 20 3 35 -11 9 -26 12 -35 9 -40 -18 -68 -16 -92 8
l-23 23 93 3 93 3 -6 32 c-12 58 -16 66 -46 92 -38 31 -100 34 -146 5z"/>
<path d="M2532 512 c-27 -8 -28 -10 -20 -39 6 -21 10 -22 52 -17 48 7 76 -5
76 -32 0 -10 -16 -14 -60 -14 -48 0 -63 -4 -80 -22 -62 -66 25 -157 110 -113
17 9 30 11 30 5 0 -5 18 -10 40 -10 l40 0 0 98 c0 92 -2 100 -25 122 -20 18
-38 24 -83 26 -31 2 -67 0 -80 -4z"/>
<path d="M205 487 c-31 -26 -44 -92 -26 -135 23 -54 102 -79 148 -47 32 22 57
79 49 113 -4 15 -8 33 -9 41 -12 51 -115 69 -162 28z m135 -8 c14 -11 19 -17
11 -13 -11 5 -10 1 2 -17 20 -28 22 -70 5 -88 -7 -6 -13 -17 -13 -24 0 -20
-54 -39 -90 -33 -79 15 -102 133 -36 183 26 20 93 15 121 -8z"/>
</g>
</svg>
